<svg width="16" height="16" viewBox="0 0 16 16" fill="none" xmlns="http://www.w3.org/2000/svg">
<path d="M9.25069 16C8.11842 16 6.98652 16 5.85425 16C5.85098 15.9327 5.84518 15.8651 5.84518 15.7977C5.84482 13.5011 5.84482 11.2048 5.84482 8.90818C5.84482 8.84337 5.84482 8.77887 5.84482 8.70153C5.74762 8.70153 5.68234 8.70153 5.61706 8.70153C4.85834 8.70153 4.09963 8.70216 3.34128 8.7009C3.2274 8.70059 3.11388 8.69245 3 8.68775C3 7.73999 3 6.79191 3 5.84414C3.03554 5.84821 3.07108 5.85572 3.10626 5.85572C3.97342 5.85635 4.84021 5.85635 5.70736 5.85572C5.74726 5.85572 5.78751 5.84664 5.84482 5.83975C5.84482 5.77713 5.84482 5.72109 5.84482 5.66504C5.84482 5.06106 5.83104 4.45646 5.84989 3.85311C5.8615 3.4802 5.88652 3.10228 5.96813 2.73689C6.30287 1.24056 7.51312 0.266179 9.25686 0.0551465C10.0863 -0.0453601 10.9154 0.0153822 11.7444 0.0510761C12.0306 0.0632872 12.3157 0.092406 12.6003 0.113384C12.6003 0.969412 12.6003 1.80571 12.6003 2.65705C12.5206 2.65705 12.4498 2.65611 12.3791 2.65705C11.7292 2.66613 11.0786 2.66143 10.4297 2.68836C9.83641 2.71309 9.46757 2.9786 9.31597 3.45202C9.27608 3.57601 9.25395 3.70782 9.25214 3.8362C9.24344 4.47149 9.24416 5.10678 9.24235 5.74207C9.24235 5.77651 9.25287 5.81095 9.26121 5.86198C10.3373 5.86198 11.4053 5.86198 12.4926 5.86198C12.3497 6.81789 12.2101 7.75408 12.0679 8.7056C11.1177 8.7056 10.1875 8.7056 9.24126 8.7056C9.24126 8.77981 9.24126 8.83617 9.24126 8.89284C9.24126 11.2101 9.24126 13.5274 9.24162 15.8447C9.24162 15.8964 9.24779 15.9483 9.25069 16Z" fill="#FFCCCC"/>
</svg>
