<svg width="16" height="16" viewBox="0 0 16 16" fill="none" xmlns="http://www.w3.org/2000/svg">
<g clip-path="url(#clip0_13_8)">
<path d="M5.66772 5.33551H8.83098V6.72338C8.92854 6.63612 8.96531 6.61355 8.99008 6.58045C10.2103 4.93909 12.7492 4.50505 14.4415 5.6507C15.2768 6.21637 15.6558 7.06338 15.8269 8.01345C15.9237 8.55355 15.9837 9.10719 15.989 9.65557C16.0078 11.6731 15.9973 13.6913 15.9965 15.7095C15.9965 15.7953 15.986 15.8818 15.9785 15.9946H12.6817C12.6817 15.8509 12.6817 15.7178 12.6817 15.5846C12.6817 13.8929 12.6899 12.2004 12.6757 10.5086C12.6719 10.0858 12.6306 9.65557 12.5413 9.24335C12.368 8.44749 11.8982 8.04504 11.1604 7.98487C10.2404 7.91039 9.50865 8.24589 9.26475 9.00038C9.08013 9.57207 9.00433 10.1987 8.99083 10.8027C8.9548 12.3809 8.97882 13.9606 8.97882 15.5403C8.97882 15.6877 8.97882 15.8351 8.97882 15.9999H5.66847V5.33551H5.66772Z" fill="#FFCCCC"/>
<path d="M0.270264 5.33032H3.55434V16H0.270264V5.33032Z" fill="#FFCCCC"/>
<path d="M1.81519e-05 1.90546C0.00527147 0.827514 0.858561 -0.00821362 1.94675 6.09132e-05C3.00117 0.00833545 3.83795 0.860612 3.83795 1.92652C3.83795 3.00673 2.98691 3.85524 1.90697 3.85073C0.829293 3.84621 -0.0044847 2.99544 1.81519e-05 1.90471V1.90546Z" fill="#FFCCCC"/>
</g>
<defs>
<clipPath id="clip0_13_8">
<rect width="16" height="16" fill="white"/>
</clipPath>
</defs>
</svg>
