<svg width="16" height="16" viewBox="0 0 16 16" fill="none" xmlns="http://www.w3.org/2000/svg">
<g clip-path="url(#clip0_9_7)">
<path d="M0 7.49095C0.0547831 7.11491 0.105224 6.73819 0.166353 6.36318C0.195415 6.18458 0.244854 6.00942 0.286943 5.82568C1.48315 5.82568 2.66834 5.82568 3.86555 5.82568C3.69084 7.28048 3.68951 8.72807 3.86655 10.1846C2.67201 10.1846 1.4905 10.1846 0.271911 10.1846C0.2041 9.80786 0.132281 9.42394 0.0671427 9.03898C0.0377469 8.86622 0.0220468 8.69105 0 8.51726C0 8.17516 0 7.83305 0 7.49095Z" fill="#FFCCCC"/>
<path d="M9.8339 0C10.2264 0.135744 10.6279 0.248522 11.0094 0.411346C12.9549 1.24227 14.3735 2.64393 15.2715 4.60022C15.2831 4.62593 15.2925 4.65267 15.3022 4.67906C15.3039 4.68386 15.3015 4.69003 15.2998 4.70786C14.1945 4.70786 13.0878 4.70786 11.9704 4.70786C11.5896 2.96889 11.0652 1.293 9.76709 0C9.78947 0 9.81152 0 9.8339 0Z" fill="#FFCCCC"/>
<path d="M6.23355 0C4.98189 1.24946 4.44074 2.85543 4.06895 4.54606C4.06027 4.5848 4.05292 4.62387 4.04323 4.66227C4.03922 4.67838 4.03087 4.69346 4.02352 4.71197C2.91617 4.71197 1.80848 4.71197 0.661377 4.71197C0.827062 4.39524 0.967026 4.0929 1.13605 3.80872C2.28917 1.8706 3.94335 0.620104 6.08056 0.0383923C6.11062 0.0301654 6.13835 0.013026 6.16708 0C6.18912 0 6.2115 0 6.23355 0Z" fill="#FFCCCC"/>
<path d="M11.0561 10.1876C9.01177 10.1876 6.98647 10.1876 4.9458 10.1876C4.75205 8.73351 4.75339 7.28455 4.94413 5.82495C6.98045 5.82495 9.0101 5.82495 11.0561 5.82495C11.2489 7.2746 11.2469 8.72357 11.0561 10.1876Z" fill="#FFCCCC"/>
<path d="M5.1272 4.71122C5.42015 3.43913 5.79896 2.22018 6.60667 1.19113C6.82748 0.909696 7.08569 0.669402 7.40203 0.501435C7.82025 0.279308 8.23447 0.293363 8.64267 0.525088C9.05588 0.759555 9.36253 1.11126 9.62509 1.50409C10.2143 2.3854 10.5517 3.37503 10.7993 4.40271C10.822 4.49629 10.8403 4.5909 10.86 4.68517C10.861 4.69031 10.8584 4.69648 10.856 4.71122C8.95667 4.71122 7.05529 4.71122 5.1272 4.71122Z" fill="#FFCCCC"/>
<path d="M5.13855 11.2944C7.05161 11.2944 8.95432 11.2944 10.8731 11.2944C10.5814 12.5638 10.208 13.7868 9.39259 14.809C9.20552 15.0432 8.9737 15.2519 8.72951 15.4233C8.23847 15.7675 7.72872 15.7411 7.234 15.4072C6.7777 15.099 6.45702 14.6651 6.17843 14.1944C5.73181 13.4396 5.2892 12.2032 5.13855 11.2944Z" fill="#FFCCCC"/>
<path d="M15.699 10.1852C14.5115 10.1852 13.3306 10.1852 12.1348 10.1852C12.3091 8.73004 12.3115 7.28278 12.1348 5.82353C12.1916 5.8201 12.24 5.81496 12.2881 5.81496C13.3761 5.81462 14.464 5.81667 15.552 5.81153C15.6753 5.81085 15.7207 5.84855 15.7508 5.97196C16.0918 7.35991 16.0818 8.74375 15.7254 10.1262C15.7217 10.1427 15.712 10.1571 15.699 10.1852Z" fill="#FFCCCC"/>
<path d="M11.9664 11.2932C13.0908 11.2932 14.1945 11.2932 15.3216 11.2932C14.8405 12.4117 14.1614 13.3616 13.2795 14.1576C12.2751 15.0646 11.119 15.6734 9.80884 15.9795C10.4332 15.358 10.8694 14.6131 11.2155 13.8072C11.5609 13.0024 11.7924 12.1612 11.9664 11.2932Z" fill="#FFCCCC"/>
<path d="M0.690796 11.2932C1.80817 11.2932 2.91285 11.2932 4.02822 11.2932C4.40602 13.0195 4.92446 14.6782 6.22489 16C5.13257 15.7382 4.17153 15.2812 3.29633 14.6306C2.13587 13.7681 1.18017 12.5225 0.690796 11.2932Z" fill="#FFCCCC"/>
</g>
<defs>
<clipPath id="clip0_9_7">
<rect width="16" height="16" fill="white"/>
</clipPath>
</defs>
</svg>
